<svg xmlns="http://www.w3.org/2000/svg" version="1.1" xmlns:xlink="http://www.w3.org/1999/xlink" xmlns:svgjs="http://svgjs.dev/svgjs" viewBox="0 0 1422 800" opacity="0.15"><g fill="none" stroke-width="1.25" stroke="hsl(265, 55%, 20%)" stroke-linecap="round" stroke-dasharray="16"><path d="M1461.7 352.05C1479.02 377.32 1488.68 402.59 1489.13 427.85 1481.29 453.18 1465.08 478.65 1442.87 504.32 1418.37 530.25 1393.78 556.62 1371.88 583.5 1355.48 610.84 1344.81 638.86 1339.81 667.53 1340.83 696.59 1345.06 726.17 1350.43 755.98 1356.29 785.56 1359.24 814.68 1357.8 842.73 1352.21 869.27 1340.76 893.62 1323.76 914.99 1302.44 933.52 1277 948.22 1248.74 958.74 1218.95 966.35 1188.5 970.3 1158.4 971.23 1129.43 971.63 1101.98 971.33 1076.28 971.79 1052.69 975.69 1030.78 982.95 1010.24 994.48 991.45 1011.47 973.35 1032.68 955.5 1057.07 938.61 1083.62 921.32 1109.55 903.33 1132.41 885.7 1150.75 866.99 1162.03 847.08 1165.04 827.25 1161.06 806.07 1149.92 783.54 1133.63 761.02 1116.49 737.12 1100.13 711.85 1087.47 686.58 1082.1 660.55 1083.55 633.86 1091.12 607.17 1104.47 579.85 1119.61 552.03 1133.63 524.3 1145.25 496.19 1150.74 467.98 1148.82 440.13 1140.19 412.54 1124.17 385.64 1102.24 359.7 1076.89 335.1 1049.5 312.41 1022.21 291.47 997.3 273.1 975.52 257.74 957.57 229.2 931.6 205.63 912.43 194.06 900.93 181.23 890.27 164.55 876.21 143.83 858.98 118.96 839.51 91.53 817.38 63.13 793.15 35.22 767.47 10.4 740.47 -9.12 712.7 -22.65 684.32 -28.43 655.71 -26.29 627.22 -18.64 598.6 -6.12 570.34 8.62 542.59 21.07 514.87 29.85 487.69 32.69 461.13 27.24 434.59 15.02 408.65 -2.29 383.38 -22.88 358.11 -41.63 334.12 -55.23 311.44 -62.53 288.78 -60.71 267.47 -49.9 247.54 -32.27 227.64 -9 209.09 17.03 191.87 42.33 174.51 65.11 158.25 83.54 142.85 95.77 126.83 102.62 111.13 104.95 95.33 102.83 78.06 99.32 59.92 96.32 40.45 94.12 18.74 95.63 -4.8 101.73 -30.29 111.83 -57.82 127.15 -86.77 147.13 -116.48 170.6 -146.27 197.32 -174.96 226.17 -201.26 256.19 -224.49 286.69 -243.18 316.88 -256.38 346.35 -264.75 374.72 -267.46 401.83 -265.08 427.54 -260.33 452.05 -253.53 475.59 -246.7 497.95 -243.29 519.8 -243.72 541.47 -249.35 562.46 -261.69 583.71 -279.24 605.48 -300.61 626.96 -324.38 649.25 -346.96 672.46 -365.3 695.6 -377.88 719.8 -381.89 745.06 -376.53 770.33 -363.87 796.07 -344.94 822.14 -322.81 848.15 -301.51 874.36 -282.95 900.52 -269.21 926.41 -262.47 951.96 -261.67 976.82 -265.76 1001 -274.35 1024.02 -283.84 1045.44 -291.86 1065.69 -297.74 1083.88 -298.36 1099.66 -292.81 1114.05 -281.81 1125.95 -264.58 1135.43 -242.17 1144.17 -216.32 1151.29 -187.89 1157.41 -158.45 1164.72 -129.55 1172.7 -101.96 1182.34 -76.45 1195.47 -53.85 1211.69 -33.86 1231.42 -16.24 1255.16 -1.46 1281.78 11.79 1310.29 24.19 1339.59 35.09 1367.6 46.24 1392.26 58.15 1419.33 76.39 1429.42 121.22 1415.22 148.15 1403.44 167.11 1392.23 187.55 1384.35 209.27 1383.29 231.25 1388.9 254.27 1401.19 278.15 1419.79 302.11 1441.11 326.77 1461.69 352.04Q1461.7 352.05 1461.7 352.05" opacity="0.13"></path><path d="M1370.2 409.57C1385.65 431.68 1395.29 454.41 1397.96 477.66 1394.28 500.9 1383.54 524.61 1366.99 548.67 1347.04 572.63 1324.84 596.82 1302.48 621 1282.36 644.88 1265.22 668.49 1251.91 691.5 1243.59 713.79 1239.18 735.05 1237.92 754.86 1244.6 802.03 1232.81 843.97 1213.74 849.05 1196.88 852.1 1176.87 854.81 1154.42 858 1130.26 863.53 1104.74 871.02 1078.52 881.14 1051.94 895 1025.45 911.9 999.37 931.6 973.75 953.99 948.81 977.57 924.62 1001.03 901.07 1023.46 878.15 1042.85 855.74 1057.7 833.83 1067.78 812.18 1071.65 790.67 1069.1 769.4 1061.89 748.03 1050.01 726.48 1035.07 705 1020.38 683.2 1006.71 661.09 995.97 638.99 990.83 617.09 990.77 595.51 995.48 574 1005.16 552.93 1017.1 532.5 1029.43 512.33 1041.54 493.02 1050.36 474.81 1054.54 457.11 1054.27 440.76 1048.02 426 1036.07 411.88 1019.77 399.45 999.32 388.77 976.06 378.55 951.71 369.8 927.05 362.3 903.23 354.45 881.5 347.06 862.03 339.58 845.08 330.41 831.31 320.05 819.86 307.94 810.26 292.94 802.97 275.53 796.45 255.62 790.05 233.03 784.42 208.66 777.86 183.32 770 157.69 761.72 133.3 751.62 111.54 739.65 93.07 726.82 79.46 712.13 71.58 695.77 68.68 678.62 71.43 660.08 79.07 640.43 88.96 620.28 100.59 599.32 112.02 577.83 120.03 556.1 124.27 534.06 123.57 511.91 116.53 489.69 104.65 467.47 89.2 445.37 71.24 423.26 54.51 401.78 41.29 380.93 32.2 360.03 29.8 339.63 34.47 319.66 45 299.46 61.42 279.46 82.11 259.51 104.7 239.04 128.01 218.32 150.29 197.15 169.58 175.2 185.55 152.53 197.79 129.06 205.5 104.72 209.95 79.58 212.02 53.79 211.51 27.58 210.67 1.23 210.59 -24.76 210.92 -50 213.73 -73.84 219.5 -95.53 227.5 -114.91 238.94 -131.05 253.57 -143.39 270.57 -152.54 290.24 -157.69 312.02 -158.98 335.3 -158.19 359.88 -154.95 385.22 -150.32 411.11 -146.78 437.17 -144.35 463.07 -144.25 488.94 -148.5 514.42 -156.64 539.38 -168.85 564.14 -185.51 588.4 -204.88 612.16 -225.52 635.76 -246.38 658.96 -264.83 681.77 -278.89 704.53 -287.98 726.99 -290.16 749.1 -285.03 771.2 -274.29 792.44 -258.38 812.74 -239.31 833 -220 852.23 -201.61 870.32 -185.87 896.61 -171.44 942.36 -170.57 961.69 -179.29 979.76 -189.33 1012.12 -192.5 1028.24 -181.08 1040.53 -168.17 1053.77 -151.05 1068.41 -130.47 1085.4 -107.55 1104.33 -82.67 1125.3 -56.75 1148.51 -30.61 1173.3 -4.72 1199.06 20.38 1225.26 44.27 1250.72 66.89 1274.24 88.2 1295.2 107.92 1312.17 126.52 1324.19 144.26 1332.69 168.8 1320.1 216.01 1305.53 240.07 1297.31 255.99 1291.45 272.77 1289.45 290.5 1293.31 308.14 1302.21 326.85 1315.67 346.68 1333.26 366.49 1352.24 387.46 1370.19 409.56Q1370.2 409.57 1370.2 409.57" opacity="0.78"></path><path d="M1278.7 449.76C1292.18 468.71 1301.41 487.35 1305.58 505.61 1305.21 523.83 1299.31 541.58 1288.44 558.72 1274.08 575.7 1256.56 591.92 1237.17 607.23 1217.63 622.21 1198.53 636.1 1180.86 648.75 1147.51 680.4 1130.71 714.67 1130.66 723.12 1130.06 732.72 1118.49 757.32 1106.07 774.42 1095.41 788.71 1082.49 804.81 1067.6 822.62 1051.38 842.23 1033.6 862.81 1014.64 883.71 994.84 904.54 974.31 924.13 953.35 941.49 932 956.37 910.53 967.52 889.15 974.28 867.66 977.22 846.39 975.54 825.49 969.51 804.58 960.86 784.07 949.5 764.06 936.56 744.04 924.46 724.52 913.37 705.57 904.47 686.62 899.69 668.69 898.49 651.79 900.78 634.9 907.06 619.03 915.51 604.21 925.07 582.45 940.36 543.54 957.65 525.96 955.16 514.08 948.67 502.59 938.05 491.26 923.8 479.11 906.98 466.68 887.71 453.7 866.81 439.38 845.27 424.09 823.45 407.63 801.97 389.59 781.52 370.28 762.19 349.79 744.17 328.14 727.92 305.84 713.03 283.39 699.36 261.13 687.31 239.89 676.06 220.45 665.32 195.96 650.79 169.57 621.41 169.15 605.37 176.31 588.59 201.47 549.81 212.75 527.72 216.31 512.6 216.63 496.45 213.25 479.35 205.33 462.22 194.18 444.17 180.7 425.22 165.37 406.26 150.85 386.87 138.61 367.08 128.82 347.28 123.59 327.05 123.45 306.44 127.68 285.77 136.98 264.69 150.66 243.25 167.28 221.77 186.44 199.97 206.96 177.98 227.34 156.1 247.08 134.23 265.36 112.6 281.16 91.46 294.64 70.94 305.74 51.42 316.99 24.47 328.81 -18.07 332.56 -32.22 343.91 -43.51 380.45 -42.04 400.22 -41.67 414.92 -44.32 431.02 -49.14 448.22 -56.54 466.08 -67.38 484.72 -80.82 503.88 -96.48 523.38 -114.26 543.15 -132.68 562.97 -150.61 582.93 -167.48 602.8 -181.51 622.43 -191.54 642.09 -197.57 661.45 -198.3 680.4 -193.53 699.35 -184.62 717.45 -171.61 734.7 -155.77 751.98 -139.08 768.48 -122.14 784.26 -106.18 807.84 -87.46 853.13 -69.81 875.62 -70.21 891.26 -73.68 907.18 -77.83 923.59 -81.76 940.98 -85.75 959.12 -87.97 978.14 -87.85 998.24 -85.93 1019.23 -80.93 1041.01 -72.84 1063.46 -62.4 1086.26 -49.06 1108.96 -33.22 1131.25 -15.57 1152.51 3.89 1172.07 24.68 1189.73 46.32 1204.64 68.58 1216.22 91.08 1224.86 113.62 1229.74 135.98 1230.85 157.97 1229.47 179.59 1225.17 200.73 1218.68 221.36 1212.06 241.54 1205.23 261.31 1199.31 280.71 1196.32 299.79 1196.06 318.67 1199.14 337.43 1206.6 356.02 1217.4 374.65 1230.93 393.34 1246.93 411.99 1263.37 430.8 1278.69 449.75Q1278.7 449.76 1278.7 449.76" opacity="0.94"></path><path d="M1187.2 399.86C1207.97 431.44 1214.76 459.7 1206.18 484.59 1186.26 509.56 1156.31 531.42 1122.13 550.56 1090.07 570.66 1062.26 589.43 1040.47 608.14 1026.78 630.17 1017.53 654.47 1010.17 682.04 1005.68 714.19 998.55 749.19 987.32 785.08 974.55 820.09 956.62 849.94 934.21 870.52 910.13 881.7 882.72 880.29 853.2 867.14 823.16 849.71 791.98 829.71 760.4 812.97 728.81 807.53 698.32 811.27 668.79 821.82 638.75 838.34 608.7 852.03 578.05 858.42 545.72 857.73 511.64 845.45 475.73 822.95 438.28 793.82 400.07 759 363.17 721.83 329.13 684.85 300.93 649.11 281.73 615.58 270.64 584.86 270.13 555.95 279.03 528.12 290.06 502.03 302.04 475.46 309.77 447.7 306.16 420.38 292.97 390.99 272.2 359.41 246.37 327.82 226.16 295.53 217.08 263.3 219.04 231.49 235.44 200.6 263.01 171.96 295.98 145.05 331.5 121.95 365.27 103.99 393.57 88.85 416.73 79.24 435.31 74.83 454.04 69.28 490.15 45.81 515.34 15.33 534.05 -14.2 556.72 -45.87 582.8 -74.57 609.25 -97.31 638.49 -107.46 670.07 -102.03 701.66 -85.29 734.09 -58.89 767.2 -29.27 800.69 -3.93 835.48 15.45 871.5 27.42 908.16 30 945.93 28.47 983.64 26.34 1020.09 23.35 1053.88 25.78 1082.32 35.03 1105.13 48.86 1119.43 69.9 1124.01 96.55 1123.13 126.52 1115.93 159.76 1106.11 194.39 1101.7 229.99 1103.26 265.58 1113.49 300.18 1134.76 334.85 1161.37 368.26 1187.19 399.85Q1187.2 399.86 1187.2 399.86" opacity="0.12"></path><path d="M1095.7 350.21C1113.02 375.47 1121.32 399.99 1119.51 423.77 1109.94 447.86 1091.53 471.79 1066.95 495.87 1039.91 520.99 1011.54 547.04 984.13 574.18 959.89 602.68 938.46 632.25 919.8 662.09 904.92 691.7 891.46 719.61 878.34 743.86 860.68 771.06 816.84 780.24 788.57 763.11 768.78 748.98 746.21 734.13 720.94 721.47 695.68 716.1 668.91 716.19 641.05 720.89 613.16 731.09 584.2 741.59 554.76 749.84 525.64 756.53 496.69 757.12 469.08 751.05 443.25 740.33 420.44 723.22 402.2 701.14 387.74 676.07 379.22 648.14 377.15 618.9 378.24 589.02 383.96 559.09 392.48 529.85 398.53 500.9 402.56 472.73 402.39 445.57 394.44 418.59 381.02 392.34 363.7 367.08 343.11 341.81 325.86 318.72 315 298.05 309.97 277.56 314.57 259.76 328.1 244.93 347.65 230.37 373.09 218.69 401.79 209.63 431.08 199.93 460.14 191.58 487.65 183.54 512.47 172.5 535.25 159.66 556.32 144.07 575.01 123.83 593.24 100.58 611.8 75.37 629.33 48.6 648.27 23.71 669.08 3.76 689.67 -10.68 712.56 -15.89 737.83 -10.53 763.09 2.12 789.54 22.09 816.6 45.97 843.45 69.18 870.46 90.92 896.72 109.34 921.95 122 945.33 130.85 965.59 136.87 1000.76 145.54 1005 184.49 1002.58 210.94 1007.57 230.65 1017.34 252.68 1032.13 276.24 1052.73 300.12 1075.11 324.93 1095.69 350.2Q1095.7 350.21 1095.7 350.21" opacity="0.09"></path><path d="M1004.2 390.69C1017.68 409.64 1025.85 429.67 1028.17 450.46 1026.23 471.27 1018.33 492.86 1005.37 514.84 989.33 536.73 969.94 558.79 948.56 580.41 926.59 601.34 904.18 621.13 882.14 638.87 861.09 654.82 840.82 667.71 821.46 676.68 803.26 682.94 785.57 684.82 768.16 682.17 751.42 677.48 734.4 669.35 716.9 658.67 699.59 648.84 681.45 638.87 662.5 629.97 643.55 625.19 624.68 623.01 606.26 623.27 579.29 629.79 532.27 645.25 514.51 648.57 496.15 635.38 496.16 578.93 499.52 551.52 498.59 532.31 495.7 512.54 490.32 492.78 480.69 472.9 468.68 453.29 455.2 434.34 439.87 415.39 426.49 397.99 416.43 382.14 407.33 358.8 420.99 316.79 442.21 296.43 460.13 281.65 480.63 266.32 502.59 250.17 525.16 232.25 548.11 213.21 570.79 193.33 593.1 172.29 614.9 151.28 635.99 131.36 656.65 112.54 676.84 96.76 696.54 85.42 716.09 77.85 735.41 76.19 754.36 80.97 773.31 89.87 791 103.68 807.19 120.82 823.23 138.81 837.51 157.72 849.69 176.3 866.15 200.4 886.41 236.98 890.8 250.66 894.66 261.47 904.46 285.61 914.67 301.14 925.78 311.99 939.15 324.88 954.27 339.81 971.65 354.75 988.87 371.73 1004.19 390.68Q1004.2 390.69 1004.2 390.69" opacity="0.43"></path><path d="M912.7 448.02C930.02 473.28 935.58 498.34 929.61 521.16 917.06 542.87 895.41 560.37 868.69 571.15 839.82 578.97 809.22 578.98 779.62 571.12 750.08 562.96 721.87 551.12 696.61 538.47 661.37 531.78 618.55 534.25 609.89 531.6 603.49 528.14 598.35 518.28 592.38 502.53 579.82 486.09 564.02 464.69 546.7 439.43 526.11 414.16 511.87 387.42 506.38 360.07 505.63 332.03 515.17 302.46 532.61 272.8 553.76 242.98 579.68 214.89 606.99 192.4 635.08 174.71 662.86 167.1 688.12 172.47 713.39 185.12 733.76 207.2 749.45 233.88 765.93 260.26 779.45 287.05 791.41 312.35 807.09 334.68 824.34 356.62 843.61 378.69 867.62 399.66 892.11 422.74 912.69 448.01Q912.7 448.02 912.7 448.02" opacity="0.83"></path></g></svg>